{"title":"Brilliantovaja ruka 1968 480p BRRip XviD-DiN","uid":8826489,"size":1498463073,"categoryP":"video","categoryS":"movies","magnet":"?xt=urn:btih:f290ce19efdc164ceb8f86c7f50e19c0d6134b95&amp;dn=Brilliantovaja+ruka+1968+480p+BRRip+XviD-DiN+&amp;tr=udp%3A%2F%2Ftracker.openbittorrent.com%3A80&amp;tr=udp%3A%2F%2Fopen.demonii.com%3A1337&amp;tr=udp%3A%2F%2Ftracker.coppersurfer.tk%3A6969&amp;tr=udp%3A%2F%2Fexodus.desync.com%3A6969","seeders":0,"leechers":1,"uploader":"R0thschild","files":4,"time":1376860654,"description":" &lt;a href=&quot;http://www.imdb.com/title/tt0062759/&quot; rel=&quot;nofollow&quot; target=&quot;_NEW&quot;&gt;http://www.imdb.com/title/tt0062759/&lt;/a&gt;\n\n\nGeneral\n\nComplete name                            : Brilliantovaja.ruka.1968.480p.BRRip.XviD-DiN\n\nFormat                                   : AVI\nFormat/Info                              : Audio Video Interleave\nFile size                                : 1.37 GiB\nDuration                                 : 1h 38mn\nOverall bit rate                         : 1 999 Kbps\n\n\nVideo\n\nID                                       : 0\nFormat                                   : MPEG-4 Visual\nFormat profile                           : Advanced Simple@L5\nFormat settings, BVOP                    : 2\nFormat settings, QPel                    : No\nFormat settings, GMC                     : No warppoints\nFormat settings, Matrix                  : Default (H.263)\nCodec ID                                 : XVID\nCodec ID/Hint                            : XviD\nDuration                                 : 1h 38mn\nBit rate                                 : 1 543 Kbps\nWidth                                    : 720 pixels\nHeight                                   : 304 pixels\nDisplay aspect ratio                     : 2.35:1\nFrame rate                               : 23.976 fps\nColor space                              : YUV\nChroma subsampling                       : 4:2:0\nBit depth                                : 8 bits\nScan type                                : Progressive\nCompression mode                         : Lossy\nBits/(Pixel*Frame)                       : 0.294\nStream size                              : 1.06 GiB (77%)\nWriting library                          : XviD 1.2.1 (UTC 2008-12-04)\n\n\n\nAudio\n\nID                                       : 1\nFormat                                   : AC-3\nFormat/Info                              : Audio Coding 3\nMode extension                           : CM (complete main)\nFormat settings, Endianness              : Big\n\nCodec ID                                 : 2000\nDuration                                 : 1h 38mn\nBit rate mode                            : Constant\nBit rate                                 : 448 Kbps\nChannel(s)                               : 6 channels\nChannel positions                        : Front: L C R, Side: L R, LFE\nSampling rate                            : 48.0 KHz\nBit depth                                : 16 bits\nCompression mode                         : Lossy\nStream size                              : 315 MiB (22%)\nAlignment                                : Aligned on interleaves\nInterleave, duration                     : 64 ms (1.53 video frames)\nInterleave, preload duration             : 192 ms\n\nTitle                                    : Brilliantovaja.ruka.1968.Blu-ray.Remux","torrent":{"xt":"urn:btih:f290ce19efdc164ceb8f86c7f50e19c0d6134b95","amp;dn":"Brilliantovaja+ruka+1968+480p+BRRip+XviD-DiN+","amp;tr":["udp%3A%2F%2Ftracker.openbittorrent.com%3A80","udp%3A%2F%2Fopen.demonii.com%3A1337","udp%3A%2F%2Ftracker.coppersurfer.tk%3A6969","udp%3A%2F%2Fexodus.desync.com%3A6969"],"infoHash":"f290ce19efdc164ceb8f86c7f50e19c0d6134b95","infoHashBuffer":{"type":"Buffer","data":[242,144,206,25,239,220,22,76,235,143,134,199,245,14,25,192,214,19,75,149]},"announce":[],"urlList":[]}}